<?xml version="1.0" encoding="utf-8"?>
<!DOCTYPE svg PUBLIC "-//W3C//DTD SVG 1.0//EN" "http://www.w3.org/TR/2001/REC-SVG-20010904/DTD/svg10.dtd">
<svg xmlns="http://www.w3.org/2000/svg" xml:space="preserve" xmlns:xlink="http://www.w3.org/1999/xlink" width="205" height="205" viewBox="0 0 205 205">
<desc></desc>
<rect width="205" height="205" fill="#ffffff" cx="0" cy="0" />
<defs>
<rect id="p" width="5" height="5" />
</defs>
<g fill="#000000">
<use x="10" y="10" xlink:href="#p" />
<use x="15" y="10" xlink:href="#p" />
<use x="20" y="10" xlink:href="#p" />
<use x="25" y="10" xlink:href="#p" />
<use x="30" y="10" xlink:href="#p" />
<use x="35" y="10" xlink:href="#p" />
<use x="40" y="10" xlink:href="#p" />
<use x="55" y="10" xlink:href="#p" />
<use x="85" y="10" xlink:href="#p" />
<use x="115" y="10" xlink:href="#p" />
<use x="120" y="10" xlink:href="#p" />
<use x="140" y="10" xlink:href="#p" />
<use x="160" y="10" xlink:href="#p" />
<use x="165" y="10" xlink:href="#p" />
<use x="170" y="10" xlink:href="#p" />
<use x="175" y="10" xlink:href="#p" />
<use x="180" y="10" xlink:href="#p" />
<use x="185" y="10" xlink:href="#p" />
<use x="190" y="10" xlink:href="#p" />
<use x="10" y="15" xlink:href="#p" />
<use x="40" y="15" xlink:href="#p" />
<use x="50" y="15" xlink:href="#p" />
<use x="60" y="15" xlink:href="#p" />
<use x="65" y="15" xlink:href="#p" />
<use x="75" y="15" xlink:href="#p" />
<use x="80" y="15" xlink:href="#p" />
<use x="85" y="15" xlink:href="#p" />
<use x="105" y="15" xlink:href="#p" />
<use x="110" y="15" xlink:href="#p" />
<use x="120" y="15" xlink:href="#p" />
<use x="135" y="15" xlink:href="#p" />
<use x="160" y="15" xlink:href="#p" />
<use x="190" y="15" xlink:href="#p" />
<use x="10" y="20" xlink:href="#p" />
<use x="20" y="20" xlink:href="#p" />
<use x="25" y="20" xlink:href="#p" />
<use x="30" y="20" xlink:href="#p" />
<use x="40" y="20" xlink:href="#p" />
<use x="55" y="20" xlink:href="#p" />
<use x="100" y="20" xlink:href="#p" />
<use x="110" y="20" xlink:href="#p" />
<use x="115" y="20" xlink:href="#p" />
<use x="135" y="20" xlink:href="#p" />
<use x="140" y="20" xlink:href="#p" />
<use x="160" y="20" xlink:href="#p" />
<use x="170" y="20" xlink:href="#p" />
<use x="175" y="20" xlink:href="#p" />
<use x="180" y="20" xlink:href="#p" />
<use x="190" y="20" xlink:href="#p" />
<use x="10" y="25" xlink:href="#p" />
<use x="20" y="25" xlink:href="#p" />
<use x="25" y="25" xlink:href="#p" />
<use x="30" y="25" xlink:href="#p" />
<use x="40" y="25" xlink:href="#p" />
<use x="50" y="25" xlink:href="#p" />
<use x="60" y="25" xlink:href="#p" />
<use x="75" y="25" xlink:href="#p" />
<use x="80" y="25" xlink:href="#p" />
<use x="85" y="25" xlink:href="#p" />
<use x="95" y="25" xlink:href="#p" />
<use x="105" y="25" xlink:href="#p" />
<use x="110" y="25" xlink:href="#p" />
<use x="115" y="25" xlink:href="#p" />
<use x="120" y="25" xlink:href="#p" />
<use x="125" y="25" xlink:href="#p" />
<use x="130" y="25" xlink:href="#p" />
<use x="135" y="25" xlink:href="#p" />
<use x="145" y="25" xlink:href="#p" />
<use x="150" y="25" xlink:href="#p" />
<use x="160" y="25" xlink:href="#p" />
<use x="170" y="25" xlink:href="#p" />
<use x="175" y="25" xlink:href="#p" />
<use x="180" y="25" xlink:href="#p" />
<use x="190" y="25" xlink:href="#p" />
<use x="10" y="30" xlink:href="#p" />
<use x="20" y="30" xlink:href="#p" />
<use x="25" y="30" xlink:href="#p" />
<use x="30" y="30" xlink:href="#p" />
<use x="40" y="30" xlink:href="#p" />
<use x="50" y="30" xlink:href="#p" />
<use x="60" y="30" xlink:href="#p" />
<use x="75" y="30" xlink:href="#p" />
<use x="80" y="30" xlink:href="#p" />
<use x="85" y="30" xlink:href="#p" />
<use x="95" y="30" xlink:href="#p" />
<use x="110" y="30" xlink:href="#p" />
<use x="115" y="30" xlink:href="#p" />
<use x="120" y="30" xlink:href="#p" />
<use x="135" y="30" xlink:href="#p" />
<use x="140" y="30" xlink:href="#p" />
<use x="160" y="30" xlink:href="#p" />
<use x="170" y="30" xlink:href="#p" />
<use x="175" y="30" xlink:href="#p" />
<use x="180" y="30" xlink:href="#p" />
<use x="190" y="30" xlink:href="#p" />
<use x="10" y="35" xlink:href="#p" />
<use x="40" y="35" xlink:href="#p" />
<use x="55" y="35" xlink:href="#p" />
<use x="65" y="35" xlink:href="#p" />
<use x="70" y="35" xlink:href="#p" />
<use x="80" y="35" xlink:href="#p" />
<use x="90" y="35" xlink:href="#p" />
<use x="100" y="35" xlink:href="#p" />
<use x="115" y="35" xlink:href="#p" />
<use x="125" y="35" xlink:href="#p" />
<use x="135" y="35" xlink:href="#p" />
<use x="140" y="35" xlink:href="#p" />
<use x="160" y="35" xlink:href="#p" />
<use x="190" y="35" xlink:href="#p" />
<use x="10" y="40" xlink:href="#p" />
<use x="15" y="40" xlink:href="#p" />
<use x="20" y="40" xlink:href="#p" />
<use x="25" y="40" xlink:href="#p" />
<use x="30" y="40" xlink:href="#p" />
<use x="35" y="40" xlink:href="#p" />
<use x="40" y="40" xlink:href="#p" />
<use x="50" y="40" xlink:href="#p" />
<use x="60" y="40" xlink:href="#p" />
<use x="70" y="40" xlink:href="#p" />
<use x="80" y="40" xlink:href="#p" />
<use x="90" y="40" xlink:href="#p" />
<use x="100" y="40" xlink:href="#p" />
<use x="110" y="40" xlink:href="#p" />
<use x="120" y="40" xlink:href="#p" />
<use x="130" y="40" xlink:href="#p" />
<use x="140" y="40" xlink:href="#p" />
<use x="150" y="40" xlink:href="#p" />
<use x="160" y="40" xlink:href="#p" />
<use x="165" y="40" xlink:href="#p" />
<use x="170" y="40" xlink:href="#p" />
<use x="175" y="40" xlink:href="#p" />
<use x="180" y="40" xlink:href="#p" />
<use x="185" y="40" xlink:href="#p" />
<use x="190" y="40" xlink:href="#p" />
<use x="50" y="45" xlink:href="#p" />
<use x="60" y="45" xlink:href="#p" />
<use x="70" y="45" xlink:href="#p" />
<use x="90" y="45" xlink:href="#p" />
<use x="95" y="45" xlink:href="#p" />
<use x="100" y="45" xlink:href="#p" />
<use x="105" y="45" xlink:href="#p" />
<use x="110" y="45" xlink:href="#p" />
<use x="120" y="45" xlink:href="#p" />
<use x="125" y="45" xlink:href="#p" />
<use x="130" y="45" xlink:href="#p" />
<use x="135" y="45" xlink:href="#p" />
<use x="140" y="45" xlink:href="#p" />
<use x="145" y="45" xlink:href="#p" />
<use x="150" y="45" xlink:href="#p" />
<use x="15" y="50" xlink:href="#p" />
<use x="25" y="50" xlink:href="#p" />
<use x="30" y="50" xlink:href="#p" />
<use x="35" y="50" xlink:href="#p" />
<use x="40" y="50" xlink:href="#p" />
<use x="50" y="50" xlink:href="#p" />
<use x="55" y="50" xlink:href="#p" />
<use x="65" y="50" xlink:href="#p" />
<use x="80" y="50" xlink:href="#p" />
<use x="85" y="50" xlink:href="#p" />
<use x="100" y="50" xlink:href="#p" />
<use x="105" y="50" xlink:href="#p" />
<use x="110" y="50" xlink:href="#p" />
<use x="130" y="50" xlink:href="#p" />
<use x="150" y="50" xlink:href="#p" />
<use x="155" y="50" xlink:href="#p" />
<use x="160" y="50" xlink:href="#p" />
<use x="170" y="50" xlink:href="#p" />
<use x="175" y="50" xlink:href="#p" />
<use x="185" y="50" xlink:href="#p" />
<use x="10" y="55" xlink:href="#p" />
<use x="15" y="55" xlink:href="#p" />
<use x="25" y="55" xlink:href="#p" />
<use x="45" y="55" xlink:href="#p" />
<use x="55" y="55" xlink:href="#p" />
<use x="70" y="55" xlink:href="#p" />
<use x="80" y="55" xlink:href="#p" />
<use x="85" y="55" xlink:href="#p" />
<use x="105" y="55" xlink:href="#p" />
<use x="115" y="55" xlink:href="#p" />
<use x="125" y="55" xlink:href="#p" />
<use x="135" y="55" xlink:href="#p" />
<use x="140" y="55" xlink:href="#p" />
<use x="145" y="55" xlink:href="#p" />
<use x="165" y="55" xlink:href="#p" />
<use x="170" y="55" xlink:href="#p" />
<use x="20" y="60" xlink:href="#p" />
<use x="25" y="60" xlink:href="#p" />
<use x="30" y="60" xlink:href="#p" />
<use x="35" y="60" xlink:href="#p" />
<use x="40" y="60" xlink:href="#p" />
<use x="50" y="60" xlink:href="#p" />
<use x="70" y="60" xlink:href="#p" />
<use x="75" y="60" xlink:href="#p" />
<use x="100" y="60" xlink:href="#p" />
<use x="105" y="60" xlink:href="#p" />
<use x="115" y="60" xlink:href="#p" />
<use x="125" y="60" xlink:href="#p" />
<use x="130" y="60" xlink:href="#p" />
<use x="135" y="60" xlink:href="#p" />
<use x="145" y="60" xlink:href="#p" />
<use x="150" y="60" xlink:href="#p" />
<use x="155" y="60" xlink:href="#p" />
<use x="160" y="60" xlink:href="#p" />
<use x="165" y="60" xlink:href="#p" />
<use x="190" y="60" xlink:href="#p" />
<use x="10" y="65" xlink:href="#p" />
<use x="20" y="65" xlink:href="#p" />
<use x="35" y="65" xlink:href="#p" />
<use x="60" y="65" xlink:href="#p" />
<use x="80" y="65" xlink:href="#p" />
<use x="95" y="65" xlink:href="#p" />
<use x="105" y="65" xlink:href="#p" />
<use x="120" y="65" xlink:href="#p" />
<use x="140" y="65" xlink:href="#p" />
<use x="150" y="65" xlink:href="#p" />
<use x="155" y="65" xlink:href="#p" />
<use x="160" y="65" xlink:href="#p" />
<use x="165" y="65" xlink:href="#p" />
<use x="170" y="65" xlink:href="#p" />
<use x="175" y="65" xlink:href="#p" />
<use x="180" y="65" xlink:href="#p" />
<use x="20" y="70" xlink:href="#p" />
<use x="30" y="70" xlink:href="#p" />
<use x="35" y="70" xlink:href="#p" />
<use x="40" y="70" xlink:href="#p" />
<use x="55" y="70" xlink:href="#p" />
<use x="70" y="70" xlink:href="#p" />
<use x="90" y="70" xlink:href="#p" />
<use x="105" y="70" xlink:href="#p" />
<use x="150" y="70" xlink:href="#p" />
<use x="160" y="70" xlink:href="#p" />
<use x="165" y="70" xlink:href="#p" />
<use x="175" y="70" xlink:href="#p" />
<use x="20" y="75" xlink:href="#p" />
<use x="25" y="75" xlink:href="#p" />
<use x="60" y="75" xlink:href="#p" />
<use x="65" y="75" xlink:href="#p" />
<use x="75" y="75" xlink:href="#p" />
<use x="85" y="75" xlink:href="#p" />
<use x="105" y="75" xlink:href="#p" />
<use x="115" y="75" xlink:href="#p" />
<use x="125" y="75" xlink:href="#p" />
<use x="145" y="75" xlink:href="#p" />
<use x="155" y="75" xlink:href="#p" />
<use x="170" y="75" xlink:href="#p" />
<use x="180" y="75" xlink:href="#p" />
<use x="10" y="80" xlink:href="#p" />
<use x="15" y="80" xlink:href="#p" />
<use x="25" y="80" xlink:href="#p" />
<use x="35" y="80" xlink:href="#p" />
<use x="40" y="80" xlink:href="#p" />
<use x="45" y="80" xlink:href="#p" />
<use x="50" y="80" xlink:href="#p" />
<use x="55" y="80" xlink:href="#p" />
<use x="65" y="80" xlink:href="#p" />
<use x="70" y="80" xlink:href="#p" />
<use x="80" y="80" xlink:href="#p" />
<use x="85" y="80" xlink:href="#p" />
<use x="95" y="80" xlink:href="#p" />
<use x="100" y="80" xlink:href="#p" />
<use x="105" y="80" xlink:href="#p" />
<use x="115" y="80" xlink:href="#p" />
<use x="135" y="80" xlink:href="#p" />
<use x="145" y="80" xlink:href="#p" />
<use x="175" y="80" xlink:href="#p" />
<use x="180" y="80" xlink:href="#p" />
<use x="185" y="80" xlink:href="#p" />
<use x="190" y="80" xlink:href="#p" />
<use x="20" y="85" xlink:href="#p" />
<use x="30" y="85" xlink:href="#p" />
<use x="35" y="85" xlink:href="#p" />
<use x="60" y="85" xlink:href="#p" />
<use x="65" y="85" xlink:href="#p" />
<use x="90" y="85" xlink:href="#p" />
<use x="95" y="85" xlink:href="#p" />
<use x="105" y="85" xlink:href="#p" />
<use x="110" y="85" xlink:href="#p" />
<use x="120" y="85" xlink:href="#p" />
<use x="125" y="85" xlink:href="#p" />
<use x="130" y="85" xlink:href="#p" />
<use x="150" y="85" xlink:href="#p" />
<use x="160" y="85" xlink:href="#p" />
<use x="165" y="85" xlink:href="#p" />
<use x="170" y="85" xlink:href="#p" />
<use x="175" y="85" xlink:href="#p" />
<use x="180" y="85" xlink:href="#p" />
<use x="10" y="90" xlink:href="#p" />
<use x="15" y="90" xlink:href="#p" />
<use x="25" y="90" xlink:href="#p" />
<use x="35" y="90" xlink:href="#p" />
<use x="40" y="90" xlink:href="#p" />
<use x="50" y="90" xlink:href="#p" />
<use x="65" y="90" xlink:href="#p" />
<use x="70" y="90" xlink:href="#p" />
<use x="80" y="90" xlink:href="#p" />
<use x="85" y="90" xlink:href="#p" />
<use x="90" y="90" xlink:href="#p" />
<use x="95" y="90" xlink:href="#p" />
<use x="100" y="90" xlink:href="#p" />
<use x="110" y="90" xlink:href="#p" />
<use x="115" y="90" xlink:href="#p" />
<use x="130" y="90" xlink:href="#p" />
<use x="135" y="90" xlink:href="#p" />
<use x="160" y="90" xlink:href="#p" />
<use x="180" y="90" xlink:href="#p" />
<use x="10" y="95" xlink:href="#p" />
<use x="25" y="95" xlink:href="#p" />
<use x="30" y="95" xlink:href="#p" />
<use x="45" y="95" xlink:href="#p" />
<use x="50" y="95" xlink:href="#p" />
<use x="60" y="95" xlink:href="#p" />
<use x="65" y="95" xlink:href="#p" />
<use x="75" y="95" xlink:href="#p" />
<use x="105" y="95" xlink:href="#p" />
<use x="120" y="95" xlink:href="#p" />
<use x="135" y="95" xlink:href="#p" />
<use x="145" y="95" xlink:href="#p" />
<use x="150" y="95" xlink:href="#p" />
<use x="165" y="95" xlink:href="#p" />
<use x="175" y="95" xlink:href="#p" />
<use x="180" y="95" xlink:href="#p" />
<use x="185" y="95" xlink:href="#p" />
<use x="15" y="100" xlink:href="#p" />
<use x="25" y="100" xlink:href="#p" />
<use x="30" y="100" xlink:href="#p" />
<use x="40" y="100" xlink:href="#p" />
<use x="45" y="100" xlink:href="#p" />
<use x="55" y="100" xlink:href="#p" />
<use x="60" y="100" xlink:href="#p" />
<use x="70" y="100" xlink:href="#p" />
<use x="85" y="100" xlink:href="#p" />
<use x="90" y="100" xlink:href="#p" />
<use x="95" y="100" xlink:href="#p" />
<use x="100" y="100" xlink:href="#p" />
<use x="110" y="100" xlink:href="#p" />
<use x="115" y="100" xlink:href="#p" />
<use x="120" y="100" xlink:href="#p" />
<use x="125" y="100" xlink:href="#p" />
<use x="130" y="100" xlink:href="#p" />
<use x="140" y="100" xlink:href="#p" />
<use x="145" y="100" xlink:href="#p" />
<use x="150" y="100" xlink:href="#p" />
<use x="165" y="100" xlink:href="#p" />
<use x="170" y="100" xlink:href="#p" />
<use x="190" y="100" xlink:href="#p" />
<use x="20" y="105" xlink:href="#p" />
<use x="25" y="105" xlink:href="#p" />
<use x="30" y="105" xlink:href="#p" />
<use x="55" y="105" xlink:href="#p" />
<use x="60" y="105" xlink:href="#p" />
<use x="65" y="105" xlink:href="#p" />
<use x="80" y="105" xlink:href="#p" />
<use x="85" y="105" xlink:href="#p" />
<use x="90" y="105" xlink:href="#p" />
<use x="100" y="105" xlink:href="#p" />
<use x="105" y="105" xlink:href="#p" />
<use x="135" y="105" xlink:href="#p" />
<use x="145" y="105" xlink:href="#p" />
<use x="170" y="105" xlink:href="#p" />
<use x="175" y="105" xlink:href="#p" />
<use x="20" y="110" xlink:href="#p" />
<use x="25" y="110" xlink:href="#p" />
<use x="30" y="110" xlink:href="#p" />
<use x="40" y="110" xlink:href="#p" />
<use x="45" y="110" xlink:href="#p" />
<use x="50" y="110" xlink:href="#p" />
<use x="55" y="110" xlink:href="#p" />
<use x="65" y="110" xlink:href="#p" />
<use x="70" y="110" xlink:href="#p" />
<use x="110" y="110" xlink:href="#p" />
<use x="130" y="110" xlink:href="#p" />
<use x="140" y="110" xlink:href="#p" />
<use x="145" y="110" xlink:href="#p" />
<use x="150" y="110" xlink:href="#p" />
<use x="155" y="110" xlink:href="#p" />
<use x="160" y="110" xlink:href="#p" />
<use x="170" y="110" xlink:href="#p" />
<use x="175" y="110" xlink:href="#p" />
<use x="15" y="115" xlink:href="#p" />
<use x="25" y="115" xlink:href="#p" />
<use x="65" y="115" xlink:href="#p" />
<use x="70" y="115" xlink:href="#p" />
<use x="75" y="115" xlink:href="#p" />
<use x="85" y="115" xlink:href="#p" />
<use x="90" y="115" xlink:href="#p" />
<use x="100" y="115" xlink:href="#p" />
<use x="105" y="115" xlink:href="#p" />
<use x="110" y="115" xlink:href="#p" />
<use x="115" y="115" xlink:href="#p" />
<use x="125" y="115" xlink:href="#p" />
<use x="135" y="115" xlink:href="#p" />
<use x="140" y="115" xlink:href="#p" />
<use x="145" y="115" xlink:href="#p" />
<use x="150" y="115" xlink:href="#p" />
<use x="155" y="115" xlink:href="#p" />
<use x="165" y="115" xlink:href="#p" />
<use x="170" y="115" xlink:href="#p" />
<use x="175" y="115" xlink:href="#p" />
<use x="20" y="120" xlink:href="#p" />
<use x="30" y="120" xlink:href="#p" />
<use x="40" y="120" xlink:href="#p" />
<use x="50" y="120" xlink:href="#p" />
<use x="60" y="120" xlink:href="#p" />
<use x="75" y="120" xlink:href="#p" />
<use x="90" y="120" xlink:href="#p" />
<use x="110" y="120" xlink:href="#p" />
<use x="115" y="120" xlink:href="#p" />
<use x="125" y="120" xlink:href="#p" />
<use x="130" y="120" xlink:href="#p" />
<use x="135" y="120" xlink:href="#p" />
<use x="145" y="120" xlink:href="#p" />
<use x="170" y="120" xlink:href="#p" />
<use x="175" y="120" xlink:href="#p" />
<use x="180" y="120" xlink:href="#p" />
<use x="190" y="120" xlink:href="#p" />
<use x="10" y="125" xlink:href="#p" />
<use x="35" y="125" xlink:href="#p" />
<use x="45" y="125" xlink:href="#p" />
<use x="50" y="125" xlink:href="#p" />
<use x="60" y="125" xlink:href="#p" />
<use x="70" y="125" xlink:href="#p" />
<use x="80" y="125" xlink:href="#p" />
<use x="85" y="125" xlink:href="#p" />
<use x="90" y="125" xlink:href="#p" />
<use x="95" y="125" xlink:href="#p" />
<use x="105" y="125" xlink:href="#p" />
<use x="110" y="125" xlink:href="#p" />
<use x="120" y="125" xlink:href="#p" />
<use x="125" y="125" xlink:href="#p" />
<use x="145" y="125" xlink:href="#p" />
<use x="150" y="125" xlink:href="#p" />
<use x="160" y="125" xlink:href="#p" />
<use x="165" y="125" xlink:href="#p" />
<use x="175" y="125" xlink:href="#p" />
<use x="180" y="125" xlink:href="#p" />
<use x="15" y="130" xlink:href="#p" />
<use x="25" y="130" xlink:href="#p" />
<use x="30" y="130" xlink:href="#p" />
<use x="35" y="130" xlink:href="#p" />
<use x="40" y="130" xlink:href="#p" />
<use x="55" y="130" xlink:href="#p" />
<use x="60" y="130" xlink:href="#p" />
<use x="65" y="130" xlink:href="#p" />
<use x="85" y="130" xlink:href="#p" />
<use x="100" y="130" xlink:href="#p" />
<use x="105" y="130" xlink:href="#p" />
<use x="110" y="130" xlink:href="#p" />
<use x="120" y="130" xlink:href="#p" />
<use x="125" y="130" xlink:href="#p" />
<use x="130" y="130" xlink:href="#p" />
<use x="150" y="130" xlink:href="#p" />
<use x="160" y="130" xlink:href="#p" />
<use x="165" y="130" xlink:href="#p" />
<use x="185" y="130" xlink:href="#p" />
<use x="190" y="130" xlink:href="#p" />
<use x="10" y="135" xlink:href="#p" />
<use x="25" y="135" xlink:href="#p" />
<use x="30" y="135" xlink:href="#p" />
<use x="50" y="135" xlink:href="#p" />
<use x="55" y="135" xlink:href="#p" />
<use x="80" y="135" xlink:href="#p" />
<use x="90" y="135" xlink:href="#p" />
<use x="100" y="135" xlink:href="#p" />
<use x="125" y="135" xlink:href="#p" />
<use x="135" y="135" xlink:href="#p" />
<use x="140" y="135" xlink:href="#p" />
<use x="145" y="135" xlink:href="#p" />
<use x="150" y="135" xlink:href="#p" />
<use x="165" y="135" xlink:href="#p" />
<use x="170" y="135" xlink:href="#p" />
<use x="175" y="135" xlink:href="#p" />
<use x="180" y="135" xlink:href="#p" />
<use x="10" y="140" xlink:href="#p" />
<use x="15" y="140" xlink:href="#p" />
<use x="25" y="140" xlink:href="#p" />
<use x="30" y="140" xlink:href="#p" />
<use x="40" y="140" xlink:href="#p" />
<use x="60" y="140" xlink:href="#p" />
<use x="75" y="140" xlink:href="#p" />
<use x="85" y="140" xlink:href="#p" />
<use x="90" y="140" xlink:href="#p" />
<use x="95" y="140" xlink:href="#p" />
<use x="110" y="140" xlink:href="#p" />
<use x="115" y="140" xlink:href="#p" />
<use x="135" y="140" xlink:href="#p" />
<use x="145" y="140" xlink:href="#p" />
<use x="160" y="140" xlink:href="#p" />
<use x="170" y="140" xlink:href="#p" />
<use x="175" y="140" xlink:href="#p" />
<use x="185" y="140" xlink:href="#p" />
<use x="190" y="140" xlink:href="#p" />
<use x="10" y="145" xlink:href="#p" />
<use x="20" y="145" xlink:href="#p" />
<use x="30" y="145" xlink:href="#p" />
<use x="35" y="145" xlink:href="#p" />
<use x="60" y="145" xlink:href="#p" />
<use x="70" y="145" xlink:href="#p" />
<use x="90" y="145" xlink:href="#p" />
<use x="95" y="145" xlink:href="#p" />
<use x="100" y="145" xlink:href="#p" />
<use x="125" y="145" xlink:href="#p" />
<use x="140" y="145" xlink:href="#p" />
<use x="150" y="145" xlink:href="#p" />
<use x="155" y="145" xlink:href="#p" />
<use x="175" y="145" xlink:href="#p" />
<use x="180" y="145" xlink:href="#p" />
<use x="185" y="145" xlink:href="#p" />
<use x="190" y="145" xlink:href="#p" />
<use x="10" y="150" xlink:href="#p" />
<use x="20" y="150" xlink:href="#p" />
<use x="30" y="150" xlink:href="#p" />
<use x="40" y="150" xlink:href="#p" />
<use x="55" y="150" xlink:href="#p" />
<use x="60" y="150" xlink:href="#p" />
<use x="65" y="150" xlink:href="#p" />
<use x="70" y="150" xlink:href="#p" />
<use x="80" y="150" xlink:href="#p" />
<use x="85" y="150" xlink:href="#p" />
<use x="95" y="150" xlink:href="#p" />
<use x="105" y="150" xlink:href="#p" />
<use x="120" y="150" xlink:href="#p" />
<use x="130" y="150" xlink:href="#p" />
<use x="135" y="150" xlink:href="#p" />
<use x="145" y="150" xlink:href="#p" />
<use x="150" y="150" xlink:href="#p" />
<use x="155" y="150" xlink:href="#p" />
<use x="160" y="150" xlink:href="#p" />
<use x="165" y="150" xlink:href="#p" />
<use x="170" y="150" xlink:href="#p" />
<use x="175" y="150" xlink:href="#p" />
<use x="180" y="150" xlink:href="#p" />
<use x="50" y="155" xlink:href="#p" />
<use x="55" y="155" xlink:href="#p" />
<use x="60" y="155" xlink:href="#p" />
<use x="70" y="155" xlink:href="#p" />
<use x="75" y="155" xlink:href="#p" />
<use x="100" y="155" xlink:href="#p" />
<use x="105" y="155" xlink:href="#p" />
<use x="110" y="155" xlink:href="#p" />
<use x="115" y="155" xlink:href="#p" />
<use x="120" y="155" xlink:href="#p" />
<use x="135" y="155" xlink:href="#p" />
<use x="140" y="155" xlink:href="#p" />
<use x="150" y="155" xlink:href="#p" />
<use x="170" y="155" xlink:href="#p" />
<use x="175" y="155" xlink:href="#p" />
<use x="180" y="155" xlink:href="#p" />
<use x="185" y="155" xlink:href="#p" />
<use x="10" y="160" xlink:href="#p" />
<use x="15" y="160" xlink:href="#p" />
<use x="20" y="160" xlink:href="#p" />
<use x="25" y="160" xlink:href="#p" />
<use x="30" y="160" xlink:href="#p" />
<use x="35" y="160" xlink:href="#p" />
<use x="40" y="160" xlink:href="#p" />
<use x="55" y="160" xlink:href="#p" />
<use x="60" y="160" xlink:href="#p" />
<use x="75" y="160" xlink:href="#p" />
<use x="90" y="160" xlink:href="#p" />
<use x="95" y="160" xlink:href="#p" />
<use x="100" y="160" xlink:href="#p" />
<use x="110" y="160" xlink:href="#p" />
<use x="125" y="160" xlink:href="#p" />
<use x="150" y="160" xlink:href="#p" />
<use x="160" y="160" xlink:href="#p" />
<use x="170" y="160" xlink:href="#p" />
<use x="175" y="160" xlink:href="#p" />
<use x="180" y="160" xlink:href="#p" />
<use x="185" y="160" xlink:href="#p" />
<use x="190" y="160" xlink:href="#p" />
<use x="10" y="165" xlink:href="#p" />
<use x="40" y="165" xlink:href="#p" />
<use x="50" y="165" xlink:href="#p" />
<use x="60" y="165" xlink:href="#p" />
<use x="65" y="165" xlink:href="#p" />
<use x="70" y="165" xlink:href="#p" />
<use x="80" y="165" xlink:href="#p" />
<use x="95" y="165" xlink:href="#p" />
<use x="105" y="165" xlink:href="#p" />
<use x="110" y="165" xlink:href="#p" />
<use x="115" y="165" xlink:href="#p" />
<use x="135" y="165" xlink:href="#p" />
<use x="145" y="165" xlink:href="#p" />
<use x="150" y="165" xlink:href="#p" />
<use x="170" y="165" xlink:href="#p" />
<use x="175" y="165" xlink:href="#p" />
<use x="190" y="165" xlink:href="#p" />
<use x="10" y="170" xlink:href="#p" />
<use x="20" y="170" xlink:href="#p" />
<use x="25" y="170" xlink:href="#p" />
<use x="30" y="170" xlink:href="#p" />
<use x="40" y="170" xlink:href="#p" />
<use x="50" y="170" xlink:href="#p" />
<use x="55" y="170" xlink:href="#p" />
<use x="65" y="170" xlink:href="#p" />
<use x="70" y="170" xlink:href="#p" />
<use x="85" y="170" xlink:href="#p" />
<use x="90" y="170" xlink:href="#p" />
<use x="105" y="170" xlink:href="#p" />
<use x="110" y="170" xlink:href="#p" />
<use x="115" y="170" xlink:href="#p" />
<use x="145" y="170" xlink:href="#p" />
<use x="150" y="170" xlink:href="#p" />
<use x="155" y="170" xlink:href="#p" />
<use x="160" y="170" xlink:href="#p" />
<use x="165" y="170" xlink:href="#p" />
<use x="170" y="170" xlink:href="#p" />
<use x="10" y="175" xlink:href="#p" />
<use x="20" y="175" xlink:href="#p" />
<use x="25" y="175" xlink:href="#p" />
<use x="30" y="175" xlink:href="#p" />
<use x="40" y="175" xlink:href="#p" />
<use x="50" y="175" xlink:href="#p" />
<use x="60" y="175" xlink:href="#p" />
<use x="70" y="175" xlink:href="#p" />
<use x="75" y="175" xlink:href="#p" />
<use x="85" y="175" xlink:href="#p" />
<use x="90" y="175" xlink:href="#p" />
<use x="95" y="175" xlink:href="#p" />
<use x="100" y="175" xlink:href="#p" />
<use x="110" y="175" xlink:href="#p" />
<use x="115" y="175" xlink:href="#p" />
<use x="120" y="175" xlink:href="#p" />
<use x="125" y="175" xlink:href="#p" />
<use x="135" y="175" xlink:href="#p" />
<use x="140" y="175" xlink:href="#p" />
<use x="145" y="175" xlink:href="#p" />
<use x="150" y="175" xlink:href="#p" />
<use x="160" y="175" xlink:href="#p" />
<use x="185" y="175" xlink:href="#p" />
<use x="10" y="180" xlink:href="#p" />
<use x="20" y="180" xlink:href="#p" />
<use x="25" y="180" xlink:href="#p" />
<use x="30" y="180" xlink:href="#p" />
<use x="40" y="180" xlink:href="#p" />
<use x="60" y="180" xlink:href="#p" />
<use x="65" y="180" xlink:href="#p" />
<use x="75" y="180" xlink:href="#p" />
<use x="80" y="180" xlink:href="#p" />
<use x="85" y="180" xlink:href="#p" />
<use x="90" y="180" xlink:href="#p" />
<use x="120" y="180" xlink:href="#p" />
<use x="125" y="180" xlink:href="#p" />
<use x="130" y="180" xlink:href="#p" />
<use x="140" y="180" xlink:href="#p" />
<use x="165" y="180" xlink:href="#p" />
<use x="170" y="180" xlink:href="#p" />
<use x="185" y="180" xlink:href="#p" />
<use x="190" y="180" xlink:href="#p" />
<use x="10" y="185" xlink:href="#p" />
<use x="40" y="185" xlink:href="#p" />
<use x="50" y="185" xlink:href="#p" />
<use x="75" y="185" xlink:href="#p" />
<use x="95" y="185" xlink:href="#p" />
<use x="120" y="185" xlink:href="#p" />
<use x="125" y="185" xlink:href="#p" />
<use x="130" y="185" xlink:href="#p" />
<use x="140" y="185" xlink:href="#p" />
<use x="160" y="185" xlink:href="#p" />
<use x="165" y="185" xlink:href="#p" />
<use x="170" y="185" xlink:href="#p" />
<use x="175" y="185" xlink:href="#p" />
<use x="180" y="185" xlink:href="#p" />
<use x="185" y="185" xlink:href="#p" />
<use x="190" y="185" xlink:href="#p" />
<use x="10" y="190" xlink:href="#p" />
<use x="15" y="190" xlink:href="#p" />
<use x="20" y="190" xlink:href="#p" />
<use x="25" y="190" xlink:href="#p" />
<use x="30" y="190" xlink:href="#p" />
<use x="35" y="190" xlink:href="#p" />
<use x="40" y="190" xlink:href="#p" />
<use x="60" y="190" xlink:href="#p" />
<use x="85" y="190" xlink:href="#p" />
<use x="90" y="190" xlink:href="#p" />
<use x="100" y="190" xlink:href="#p" />
<use x="105" y="190" xlink:href="#p" />
<use x="150" y="190" xlink:href="#p" />
<use x="160" y="190" xlink:href="#p" />
<use x="165" y="190" xlink:href="#p" />
<use x="170" y="190" xlink:href="#p" />
<use x="190" y="190" xlink:href="#p" />
</g>
</svg>